<svg width="24" height="24" viewBox="0 0 24 24" fill="none" xmlns="http://www.w3.org/2000/svg">
<path d="M18.7925 13.0025H7.62246L12.5025 17.8825C12.8925 18.2725 12.8925 18.9125 12.5025 19.3025C12.1125 19.6925 11.4825 19.6925 11.0925 19.3025L4.50246 12.7125C4.11246 12.3225 4.11246 11.6925 4.50246 11.3025L11.0825 4.70249C11.2693 4.51524 11.5229 4.41 11.7875 4.41C12.052 4.41 12.3056 4.51524 12.4925 4.70249C12.8825 5.09249 12.8825 5.72249 12.4925 6.11249L7.62246 11.0025H18.7925C19.3425 11.0025 19.7925 11.4525 19.7925 12.0025C19.7925 12.5525 19.3425 13.0025 18.7925 13.0025Z" fill="#66718C"/>
</svg>
