<svg xmlns="http://www.w3.org/2000/svg" width="14" height="14" fill="none" viewBox="0 0 14 14">
    <path fill="#8089A0" fill-rule="evenodd" d="M7.397 3.72c.408-.14.711-.525.758-.956.03-.275-.03-.531-.163-.741L7.245.728c-.11-.193-.39-.193-.508 0l-.746 1.295c-.1.175-.158.379-.158.6 0 .77.759 1.371 1.564 1.097zm2.245 5.857l-.583-.583-.63.624c-.758.758-2.088.764-2.852 0l-.625-.624-.635.624c-.38.379-.887.589-1.424.589-.425 0-.816-.134-1.143-.356v2.106c0 .641.525 1.166 1.167 1.166h8.166c.642 0 1.167-.524 1.167-1.166V9.85c-.438.297-.998.438-1.598.303-.385-.081-.73-.297-1.01-.577zM7.583 5.54H10.5c.968 0 1.75.782 1.744 1.756v.828c0 .584-.408 1.126-.986 1.202-.361.047-.711-.07-.962-.32L9.053 7.762 7.805 9.005c-.443.444-1.172.444-1.616 0L4.947 7.763 3.698 9.005c-.297.304-.758.409-1.184.269-.472-.158-.764-.636-.764-1.132V7.29c0-.968.782-1.75 1.75-1.75h2.917v-.583c0-.321.262-.583.583-.583.32 0 .583.262.583.583v.583z" clip-rule="evenodd"/>
</svg>
