<svg xmlns="http://www.w3.org/2000/svg" width="24" height="24" fill="none" viewBox="0 0 24 24">
    <path fill="#66718C" fill-rule="evenodd" d="M13.989 4.21c.007-.069.011-.139.011-.21 0-1.105-.895-2-2-2s-2 .895-2 2c0 .071.004.141.011.21-3.72.8-6.68 3.799-7.326 7.681l-.672 4.031c-.009.052-.013.104-.013.157v3.017c0 1.39 1.405 2.342 2.697 1.825 4.688-1.875 9.918-1.875 14.606 0 1.292.517 2.697-.434 2.697-1.825v-3.017c0-.053-.004-.105-.013-.157l-.672-4.03C20.668 8.008 17.71 5.01 13.99 4.21zM12 6c-.11 0-.221.002-.33.007-.456.055-.822.417-.874.883l-.697 6.278c1.265-.115 2.537-.115 3.802 0l-.697-6.278c-.052-.466-.418-.828-.873-.883C12.22 6.002 12.11 6 12 6zm6.008 10.057L20 16.72v2.325c-5.138-2.042-10.862-2.042-16 0v-2.325l1.992-.664c3.9-1.3 8.116-1.3 12.016 0zm.633-1.897l1.085.361-.384-2.301c-.41-2.467-2.006-4.48-4.145-5.5l.749 6.736c.909.174 1.81.408 2.695.704zM8.803 6.72l-.749 6.736c-.909.174-1.81.408-2.695.704l-1.085.361.384-2.301c.41-2.467 2.006-4.48 4.145-5.5z" clip-rule="evenodd"/>
</svg>
