<svg xmlns="http://www.w3.org/2000/svg" width="48" height="48" viewBox="0 0 48 48">
  <g fill="none" fill-rule="evenodd">
    <circle cx="24" cy="24" r="23.5" stroke="#FF5000"/>
    <path fill="#FF5000" d="M33.6,27.9699248 C33.6,29.6300752 33.0203774,31.0736842 32.0060377,32.0842105 C30.9916981,33.0947368 29.5426415,33.6 27.9486792,33.6 L20.0513208,33.6 C18.4573585,33.6 17.0083019,33.0947368 15.9939623,32.0842105 C14.9071698,31.0736842 14.4,29.6300752 14.4,27.9699248 L14.4,20.0300752 C14.4,16.7097744 16.6460377,14.4 20.0513208,14.4 L28.0211321,14.4 C29.6875472,14.4 31.0641509,14.9774436 32.0784906,15.9879699 C33.0928302,16.9984962 33.6,18.3699248 33.6,20.0300752 L33.6,27.9699248 L33.6,27.9699248 Z M27.6165899,16.8 L20.3170507,16.8 C19.2552995,16.8 18.3262673,17.1317972 17.7290323,17.7290323 C17.1317972,18.3262673 16.8,19.2552995 16.8,20.3170507 L16.8,27.6165899 C16.8,28.678341 17.1317972,29.6073733 17.7953917,30.2709677 C18.4589862,30.8682028 19.321659,31.2 20.3834101,31.2 L27.6165899,31.2 C28.678341,31.2 29.6073733,30.8682028 30.2046083,30.2709677 C30.8682028,29.6737327 31.2,28.7447005 31.2,27.6829493 L31.2,20.3834101 C31.2,19.321659 30.8682028,18.4589862 30.2709677,17.7953917 C29.6073733,17.1317972 28.7447005,16.8 27.6165899,16.8 L27.6165899,16.8 Z"/>
    <path fill="#FF5000" d="M23.9649635,19.2 C26.5576642,19.2 28.8,21.3176471 28.8,24 C28.8,26.6823529 26.6277372,28.8 23.9649635,28.8 C21.3021898,28.8 19.2,26.6117647 19.2,24 C19.2,21.3176471 21.3722628,19.2 23.9649635,19.2 Z M24,21.6 C22.6745166,21.6 21.6,22.6745166 21.6,24 C21.6,25.3254834 22.6745166,26.4 24,26.4 C25.3254834,26.4 26.4,25.3254834 26.4,24 C26.4,22.6745166 25.3254834,21.6 24,21.6 Z M28.8,18 C29.475,18 30,18.525 30,19.2 C30,19.875 29.475,20.4 28.8,20.4 C28.125,20.4 27.6,19.875 27.6,19.2 C27.6,18.525 28.125,18 28.8,18 Z"/>
  </g>
</svg>
