<svg width="350" height="96.35796796333098" viewBox="0 0 350 96.35796796333098" class="css-1j8o68f"><defs id="SvgjsDefs2611"><linearGradient id="SvgjsLinearGradient2616"><stop id="SvgjsStop2617" stop-color="#00ddff" offset="0"></stop><stop id="SvgjsStop2618" stop-color="#ff00d4" offset="1"></stop></linearGradient></defs><g id="SvgjsG2612" featurekey="nameFeature-0" transform="matrix(2.7449884806724034,0,0,2.7449884806724034,-5.489154964290773,-32.93986176806884)" fill="url(#SvgjsLinearGradient2616)"><path d="M16 12.757000000000001 c-4.5712 0 -8.6092 2.3286 -10.99 5.8616 c1.6127 2.0976 2.4978 4.6888 2.4978 7.3448 c0 2.6732 -0.89368 5.2744 -2.5231 7.3788 c2.3773 3.5548 6.4268 5.9012 11.015 5.9012 l0 0.7568 c-7.7196 0 -14 -6.28 -14 -14 s6.2804 -14 14 -14 l0 0.7568 z M6.7516 25.964 c0 -2.3932 -0.77348 -4.7264 -2.1754 -6.65 c-1.1542 1.9643 -1.8192 4.2488 -1.8192 6.6864 c0 2.4236 0.6576 4.6956 1.7994 6.652 c1.4187 -1.9304 2.1953 -4.278 2.1953 -6.6884 z M26.3776 28.82 l0 -16.022 l-3.2667 0 l0 16.022 l3.2667 0 z M27.1556 12.797 l0 16.022 l2.4111 0 c4.4176 0 8.0112 -3.5933 8.0112 -8.0112 s-3.5933 -8.0112 -8.0112 -8.0112 l-2.4111 0 z M23.1112 40.019375 l-0.7778 0.000039062 l0 -27.222 l-2.3333 0 l0 -0.77777 l9.5667 0 c4.8456 0 8.7888 3.9433 8.7888 8.7888 s-3.9433 8.7888 -8.7888 8.7888 l-1.8589 0 l10.434 10.422 l-1.1045 0 l-10.43 -10.422 l-3.4961 0 l0 10.422 z M53.257999999999996 12.757000000000001 l-5.0704 -0.000039062 l0 26.486 l5.0704 0 l0 0.7568 l-10.897 0 l0 -0.75676 l5.0704 0 l0 -26.486 l-5.0704 0 l0 -0.7568 l10.897 0 l0 0.7568 z M71.264 12 l14.012 28.027 l-6.195 0 l-5.3824 -10.73 l-10.243 0 l-5.3432 10.702 l-0.83223 0 z M63.8288 28.555 l9.4928 0 l-4.756 -9.4852 z M68.982 18.238 l10.558 21.043 l4.5306 0 l-12.806 -25.612 z M98.71600000000001 12.02 c4.78 0 8.6688 3.8881 8.6688 8.6684 s-3.8889 8.6688 -8.6688 8.6688 l-6.3673 0 l0 10.663 l-0.76688 0 l0 -27.233 l-2.3014 0 l0 -0.76726 l9.4356 0 z M92.3484 12.786999999999999 l0 15.803 l3.222 0 l0 -15.803 l-3.222 0 z M98.71600000000001 28.589 c4.3568 0 7.9016 -3.5443 7.9016 -7.9012 s-3.5447 -7.9016 -7.9016 -7.9016 l-2.378 0 l0 15.802 l2.378 0 z M120.83600000000001 12.02 c4.78 0 8.6688 3.8881 8.6688 8.6684 s-3.8889 8.6688 -8.6688 8.6688 l-6.3673 0 l0 10.663 l-0.76688 0 l0 -27.233 l-2.3014 0 l0 -0.76726 l9.4356 0 z M114.4684 12.786999999999999 l0 15.803 l3.222 0 l0 -15.803 l-3.222 0 z M120.83600000000001 28.589 c4.3568 0 7.9016 -3.5443 7.9016 -7.9012 s-3.5447 -7.9016 -7.9016 -7.9016 l-2.378 0 l0 15.802 l2.378 0 z"></path></g><g id="SvgjsG2613" featurekey="sloganFeature-0" transform="matrix(0.7708375975134191,0,0,0.7708375975134191,117.04207253172103,81.35746902144274)" fill="#283149"><path d="M2.54 18.76 l0 -10.76 c0 -0.42 0.32 -0.64 0.64 -0.64 s0.66 0.22 0.66 0.64 l0 10.06 l3.98 0 c0.44 0 0.68 0.34 0.68 0.68 s-0.24 0.66 -0.68 0.66 l-4.62 0 c-0.4 0 -0.66 -0.32 -0.66 -0.64 z M15.081499999999998 18.78 l0 -10.78 c0 -0.42 0.32 -0.64 0.64 -0.64 s0.66 0.22 0.66 0.64 l0 10.78 c0 0.86 -1.3 0.86 -1.3 0 z M24.583000000000002 7.800000000000001 l2.62 9.02 l2.74 -8.98 c0.26 -0.86 1.48 -0.52 1.24 0.32 l-3.2 10.68 c-0.1 0.36 -0.42 0.56 -0.76 0.56 s-0.7 -0.2 -0.8 -0.56 l-3.06 -10.66 c-0.26 -0.9 1 -1.16 1.22 -0.38 z M38.1245 18.7 l0 -10.64 c0 -0.46 0.36 -0.7 0.7 -0.7 l4.6 0 c0.44 0 0.66 0.32 0.66 0.66 s-0.22 0.68 -0.66 0.68 l-3.96 0 l0 3.88 l3.14 0 c0.46 0 0.68 0.32 0.68 0.66 s-0.24 0.7 -0.68 0.7 l-3.14 0 l0 4.14 l3.96 0 c0.42 0 0.64 0.34 0.64 0.66 c0 0.34 -0.22 0.66 -0.64 0.66 l-4.6 0 c-0.34 0 -0.7 -0.12 -0.7 -0.7 z M65.0475 7.32 c1.82 0 3.76 0.7 3.76 2.76 c0 0.48 -0.32 0.7 -0.66 0.7 s-0.7 -0.24 -0.7 -0.7 c0 -0.16 -0.1 -1.46 -2.4 -1.46 c-1.82 0 -2.62 0.72 -2.62 2.44 l0 4.82 c0 1.74 0.98 2.28 2.62 2.28 c1.66 0 2.58 -0.68 2.58 -2.3 c0 -0.46 0.34 -0.68 0.66 -0.68 c0.34 0 0.66 0.22 0.66 0.68 c0 2.7 -1.5 3.6 -3.9 3.6 c-2.6 0 -3.92 -0.96 -3.92 -3.58 l0 -4.82 c0 -2.84 1.42 -3.74 3.92 -3.74 z M77.649 15.9 l0 2.86 c0 0.44 -0.34 0.64 -0.66 0.64 c-0.34 0 -0.66 -0.2 -0.66 -0.64 l0 -10.74 c0 -0.4 0.22 -0.66 0.66 -0.66 l2.7 0 c0.76 0 3.16 0.22 3.16 2.92 l0 2.5 c0 1.52 -0.56 2.48 -1.84 2.9 l1.36 2.74 c0.28 0.54 -0.14 0.98 -0.58 0.98 c-0.24 0 -0.54 -0.16 -0.7 -0.5 l-1.46 -3 l-1.98 0 z M81.52900000000001 12.780000000000001 l0 -2.5 c0 -0.48 -0.18 -1.58 -1.84 -1.58 l-2.04 0 l0 5.86 l1.86 0 c0.98 0 2.02 -0.22 2.02 -1.78 z M90.33050000000001 18.78 l0 -10.78 c0 -0.42 0.32 -0.64 0.64 -0.64 s0.66 0.22 0.66 0.64 l0 10.78 c0 0.86 -1.3 0.86 -1.3 0 z M102.892 7.32 c1.82 0 3.76 0.7 3.76 2.76 c0 0.48 -0.32 0.7 -0.66 0.7 s-0.7 -0.24 -0.7 -0.7 c0 -0.16 -0.1 -1.46 -2.4 -1.46 c-1.82 0 -2.62 0.72 -2.62 2.44 l0 4.82 c0 1.74 0.98 2.28 2.62 2.28 c1.66 0 2.58 -0.68 2.58 -2.3 c0 -0.46 0.34 -0.68 0.66 -0.68 c0.34 0 0.66 0.22 0.66 0.68 c0 2.7 -1.5 3.6 -3.9 3.6 c-2.6 0 -3.92 -0.96 -3.92 -3.58 l0 -4.82 c0 -2.84 1.42 -3.74 3.92 -3.74 z M114.15350000000001 18.76 l0 -10.76 c0 -0.42 0.32 -0.64 0.64 -0.64 s0.66 0.22 0.66 0.64 l0 4.84 l3.86 -5.18 c0.5 -0.68 1.64 -0.02 1.12 0.68 l-2.24 3.08 l2.74 7.1 c0.18 0.48 -0.18 0.88 -0.6 0.88 c-0.24 0 -0.52 -0.18 -0.66 -0.56 c-0.78 -2 -1.62 -4.08 -2.4 -6.12 l-1.82 2.36 l0 3.68 c0 0.42 -0.34 0.64 -0.66 0.64 s-0.64 -0.22 -0.64 -0.64 z M128.35500000000002 18.7 l0 -10.64 c0 -0.46 0.36 -0.7 0.7 -0.7 l4.6 0 c0.44 0 0.66 0.32 0.66 0.66 s-0.22 0.68 -0.66 0.68 l-3.96 0 l0 3.88 l3.14 0 c0.46 0 0.68 0.32 0.68 0.66 s-0.24 0.7 -0.68 0.7 l-3.14 0 l0 4.14 l3.96 0 c0.42 0 0.64 0.34 0.64 0.66 c0 0.34 -0.22 0.66 -0.64 0.66 l-4.6 0 c-0.34 0 -0.7 -0.12 -0.7 -0.7 z M141.1765 7.359999999999999 l6.04 0 c0.42 0 0.62 0.34 0.62 0.68 s-0.2 0.66 -0.62 0.66 l-2.28 0 l0 10.06 c0 0.42 -0.34 0.64 -0.68 0.64 s-0.66 -0.22 -0.66 -0.64 l0 -10.06 l-2.42 0 c-0.42 0 -0.62 -0.32 -0.62 -0.66 s0.2 -0.68 0.62 -0.68 z"></path></g></svg>