<svg xmlns="http://www.w3.org/2000/svg" width="34" height="28" viewBox="0 0 34 28">
    <defs>
        <linearGradient id="prefix__a" x1="50%" x2="50%" y1="0%" y2="77.963%">
            <stop offset="0%" stop-color="#FA9600"/>
            <stop offset="100%" stop-color="#FF5000"/>
        </linearGradient>
    </defs>
    <g fill="none" fill-rule="evenodd">
        <path fill="url(#prefix__a)" stroke="#FFF" stroke-width="2" d="M5 1c-1.101 0-2.097.446-2.818 1.167-.721.72-1.167 1.717-1.167 2.818V8.81c0 .704.176 1.402.51 2 .328.592.808 1.087 1.42 1.412.322.18.59.44.775.752.179.301.28.652.28 1.026s-.104.725-.285 1.026c-.185.307-.451.562-.787.738-.606.333-1.089.836-1.42 1.435C1.179 17.797 1 18.49 1 19.19v3.375c0 1.295.428 2.357 1.088 3.113C2.826 26.522 3.86 27 5 27h24c1.1 0 2.1-.449 2.826-1.174C32.55 25.1 33 24.1 33 23v-3.81c0-.7-.178-1.393-.509-1.991-.33-.599-.813-1.102-1.42-1.435-.33-.179-.6-.436-.789-.749C30.103 14.718 30 14.371 30 14c0-.371.103-.718.282-1.015.188-.313.46-.57.783-.745.613-.337 1.096-.84 1.426-1.439.331-.598.509-1.292.509-1.991V5c0-1.1-.449-2.1-1.174-2.826C31.1 1.45 30.1 1 29 1H5z"/>
        <path fill="#FFF" fill-rule="nonzero" d="M20.801 21.367l-3.767-2.408-3.767 2.423c-.573.362-1.311-.165-1.13-.827l1.13-4.335L9.8 13.39c-.527-.437-.256-1.295.437-1.34l3.782.135c.987.21 1.98.315 2.98.315s2.016-.105 3.048-.315l3.767-.12c.678.045.964.903.437 1.34l-3.466 2.83 1.145 4.305c.181.677-.557 1.204-1.13.827z"/>
        <circle cx="17" cy="8.75" r="2.25" fill="#FFF"/>
    </g>
</svg>
