<svg xmlns="http://www.w3.org/2000/svg" width="48" height="48" viewBox="0 0 48 48">
  <g fill="none" fill-rule="evenodd">
    <circle cx="24" cy="24" r="23.5" stroke="#FF5000"/>
    <path fill="#FF5000" d="M32.4,18.4355362 C31.7727112,18.7174685 31.1063241,18.9027241 30.4235294,18.9849951 C31.1454563,18.5452979 31.6836498,17.858952 31.9384941,17.0529951 C31.2632923,17.4592041 30.5231471,17.7460354 29.7505412,17.900901 C29.1012505,17.1973847 28.1868982,16.7980948 27.2295529,16.8000068 C26.309417,16.8057543 25.4292675,17.1768663 24.782804,17.8316701 C24.1363404,18.486474 23.7765408,19.3713081 23.7825882,20.2914421 C23.7823064,20.5594413 23.8121407,20.8266235 23.8715294,21.0879598 C21.0910372,20.9430721 18.5055112,19.6150584 16.7680941,17.4393951 C15.8531401,19.0334871 16.3174102,21.063109 17.8344,22.100901 C17.2862819,22.0835983 16.7505213,21.933721 16.2729882,21.664101 L16.2729882,21.7085715 C16.2657855,23.3620319 17.421918,24.7927459 19.0400471,25.1328068 C18.5327764,25.2724159 18.0001255,25.2930456 17.4835765,25.1930892 C17.9262041,26.6079075 19.2212168,27.5833407 20.7032471,27.6182186 C19.4866848,28.586834 17.9772803,29.1136622 16.4222118,29.1124304 C16.1523267,29.2042283 15.8572439,29.1868497 15.6,29.0640068 C17.170433,30.089515 19.0055157,30.635507 20.8811294,30.635301 C23.5042466,30.6349871 26.0179605,29.5840749 27.8607686,27.7173125 C29.7035768,25.8505501 30.7219384,23.323474 30.6883765,20.7005715 C30.6883765,20.5483833 30.6883765,20.3981715 30.6784941,20.2479598 C31.3558332,19.751328 31.938854,19.1375161 32.4,18.4355362 L32.4,18.4355362 Z"/>
  </g>
</svg>
