<svg width="29" height="29" viewBox="0 0 29 29" fill="none" xmlns="http://www.w3.org/2000/svg">
<path d="M24.8334 14.5V27.4167H4.16671V14.5M14.5 27.4167V8.04168M14.5 8.04168H8.68754C7.83111 8.04168 7.00976 7.70146 6.40417 7.09588C5.79859 6.49029 5.45837 5.66894 5.45837 4.81251C5.45837 3.95608 5.79859 3.13473 6.40417 2.52914C7.00976 1.92356 7.83111 1.58334 8.68754 1.58334C13.2084 1.58334 14.5 8.04168 14.5 8.04168ZM14.5 8.04168H20.3125C21.169 8.04168 21.9903 7.70146 22.5959 7.09588C23.2015 6.49029 23.5417 5.66894 23.5417 4.81251C23.5417 3.95608 23.2015 3.13473 22.5959 2.52914C21.9903 1.92356 21.169 1.58334 20.3125 1.58334C15.7917 1.58334 14.5 8.04168 14.5 8.04168ZM1.58337 8.04168H27.4167V14.5H1.58337V8.04168Z" stroke="white" stroke-width="2" stroke-linecap="round" stroke-linejoin="round"/>
</svg>
